<mxfile host="app.diagrams.net" modified="2024-04-10T01:33:59.343Z" agent="Mozilla/5.0 (X11; Linux x86_64) AppleWebKit/537.36 (KHTML, like Gecko) Chrome/123.0.0.0 Safari/537.36" etag="aOu24Kcwk0Mh7VsPAl1i" version="24.2.1" type="github">
  <diagram name="Page-1" id="YvK-xfUVIJKEr0HntoOl">
    <mxGraphModel dx="514" dy="1893" grid="1" gridSize="10" guides="1" tooltips="1" connect="1" arrows="1" fold="1" page="1" pageScale="1" pageWidth="850" pageHeight="1100" math="0" shadow="0">
      <root>
        <mxCell id="0" />
        <mxCell id="1" parent="0" />
        <mxCell id="p2FeWByDgp1WtgRKtF5X-1" style="edgeStyle=orthogonalEdgeStyle;rounded=0;orthogonalLoop=1;jettySize=auto;html=1;exitX=0.5;exitY=0;exitDx=0;exitDy=0;entryX=0;entryY=1;entryDx=0;entryDy=0;strokeWidth=4;" edge="1" parent="1" source="p2FeWByDgp1WtgRKtF5X-2" target="p2FeWByDgp1WtgRKtF5X-26">
          <mxGeometry relative="1" as="geometry">
            <Array as="points">
              <mxPoint x="1050" y="171" />
              <mxPoint x="1050" y="171" />
            </Array>
          </mxGeometry>
        </mxCell>
        <mxCell id="p2FeWByDgp1WtgRKtF5X-2" value="" style="rounded=1;whiteSpace=wrap;html=1;fontSize=12;glass=0;strokeWidth=3;shadow=0;rotation=90;fillColor=#d5e8d4;strokeColor=#000000;" vertex="1" parent="1">
          <mxGeometry x="921" y="151" width="140" height="40" as="geometry" />
        </mxCell>
        <mxCell id="p2FeWByDgp1WtgRKtF5X-3" value="" style="ellipse;whiteSpace=wrap;html=1;aspect=fixed;strokeWidth=2;fillColor=#67AB9F;strokeColor=#000000;" vertex="1" parent="1">
          <mxGeometry x="981" y="116" width="20" height="20" as="geometry" />
        </mxCell>
        <mxCell id="p2FeWByDgp1WtgRKtF5X-4" value="" style="ellipse;whiteSpace=wrap;html=1;aspect=fixed;strokeWidth=2;fillColor=#67AB9F;strokeColor=#000000;" vertex="1" parent="1">
          <mxGeometry x="981" y="146" width="20" height="20" as="geometry" />
        </mxCell>
        <mxCell id="p2FeWByDgp1WtgRKtF5X-5" value="" style="ellipse;whiteSpace=wrap;html=1;aspect=fixed;strokeWidth=2;fillColor=#67AB9F;strokeColor=#000000;" vertex="1" parent="1">
          <mxGeometry x="981" y="176" width="20" height="20" as="geometry" />
        </mxCell>
        <mxCell id="p2FeWByDgp1WtgRKtF5X-6" value="" style="ellipse;whiteSpace=wrap;html=1;aspect=fixed;strokeWidth=2;fillColor=#67AB9F;strokeColor=#000000;" vertex="1" parent="1">
          <mxGeometry x="981" y="206" width="20" height="20" as="geometry" />
        </mxCell>
        <mxCell id="p2FeWByDgp1WtgRKtF5X-7" value="" style="rounded=0;whiteSpace=wrap;html=1;strokeWidth=3;fillColor=#4C0099;strokeColor=#000000;fillStyle=zigzag-line;" vertex="1" parent="1">
          <mxGeometry x="1137" y="254.5" width="20" height="20" as="geometry" />
        </mxCell>
        <mxCell id="p2FeWByDgp1WtgRKtF5X-8" value="" style="rounded=0;whiteSpace=wrap;html=1;strokeWidth=3;fillColor=#4C0099;strokeColor=#000000;fillStyle=zigzag-line;" vertex="1" parent="1">
          <mxGeometry x="1157" y="254.5" width="20" height="20" as="geometry" />
        </mxCell>
        <mxCell id="p2FeWByDgp1WtgRKtF5X-9" value="" style="rounded=0;whiteSpace=wrap;html=1;strokeWidth=3;fillColor=#4C0099;strokeColor=#000000;fillStyle=zigzag-line;" vertex="1" parent="1">
          <mxGeometry x="1177" y="254.5" width="20" height="20" as="geometry" />
        </mxCell>
        <mxCell id="p2FeWByDgp1WtgRKtF5X-10" value="" style="rounded=0;whiteSpace=wrap;html=1;strokeWidth=3;fillColor=#4C0099;strokeColor=#000000;fillStyle=zigzag-line;" vertex="1" parent="1">
          <mxGeometry x="1197" y="254.5" width="20" height="20" as="geometry" />
        </mxCell>
        <mxCell id="p2FeWByDgp1WtgRKtF5X-11" style="edgeStyle=orthogonalEdgeStyle;rounded=0;orthogonalLoop=1;jettySize=auto;html=1;exitX=1;exitY=0.5;exitDx=0;exitDy=0;entryX=0;entryY=0.5;entryDx=0;entryDy=0;strokeWidth=4;" edge="1" parent="1" source="p2FeWByDgp1WtgRKtF5X-12" target="p2FeWByDgp1WtgRKtF5X-15">
          <mxGeometry relative="1" as="geometry" />
        </mxCell>
        <mxCell id="p2FeWByDgp1WtgRKtF5X-12" value="+" style="ellipse;whiteSpace=wrap;html=1;aspect=fixed;fontSize=32;strokeWidth=4;" vertex="1" parent="1">
          <mxGeometry x="1152" y="146.5" width="50" height="50" as="geometry" />
        </mxCell>
        <mxCell id="p2FeWByDgp1WtgRKtF5X-13" style="edgeStyle=orthogonalEdgeStyle;rounded=0;orthogonalLoop=1;jettySize=auto;html=1;exitX=1;exitY=0;exitDx=0;exitDy=0;entryX=0.5;entryY=1;entryDx=0;entryDy=0;strokeWidth=4;" edge="1" parent="1" source="p2FeWByDgp1WtgRKtF5X-8" target="p2FeWByDgp1WtgRKtF5X-12">
          <mxGeometry relative="1" as="geometry" />
        </mxCell>
        <mxCell id="p2FeWByDgp1WtgRKtF5X-14" style="edgeStyle=orthogonalEdgeStyle;rounded=0;orthogonalLoop=1;jettySize=auto;html=1;exitX=1;exitY=0.5;exitDx=0;exitDy=0;entryX=0;entryY=0.75;entryDx=0;entryDy=0;strokeWidth=3;" edge="1" parent="1" source="p2FeWByDgp1WtgRKtF5X-15" target="p2FeWByDgp1WtgRKtF5X-45">
          <mxGeometry relative="1" as="geometry" />
        </mxCell>
        <mxCell id="p2FeWByDgp1WtgRKtF5X-15" value="tanh" style="ellipse;whiteSpace=wrap;html=1;aspect=fixed;fontSize=21;strokeWidth=4;" vertex="1" parent="1">
          <mxGeometry x="1258" y="146" width="50" height="50" as="geometry" />
        </mxCell>
        <mxCell id="p2FeWByDgp1WtgRKtF5X-16" value="f&lt;sub&gt;g&lt;/sub&gt;&lt;sup&gt;(t)&lt;/sup&gt;" style="text;html=1;align=center;verticalAlign=middle;whiteSpace=wrap;rounded=0;fontSize=23;strokeWidth=4;" vertex="1" parent="1">
          <mxGeometry x="1381" y="226" width="60" height="30" as="geometry" />
        </mxCell>
        <mxCell id="p2FeWByDgp1WtgRKtF5X-17" value="W&lt;sub&gt;g&lt;/sub&gt;" style="text;html=1;align=center;verticalAlign=middle;whiteSpace=wrap;rounded=0;fontSize=28;fontStyle=2" vertex="1" parent="1">
          <mxGeometry x="961" y="61.5" width="60" height="30" as="geometry" />
        </mxCell>
        <mxCell id="p2FeWByDgp1WtgRKtF5X-18" value="h&lt;sup&gt;(t-1)&lt;/sup&gt;" style="text;html=1;align=center;verticalAlign=middle;whiteSpace=wrap;rounded=0;fontSize=23;strokeWidth=4;" vertex="1" parent="1">
          <mxGeometry x="860" y="211" width="60" height="30" as="geometry" />
        </mxCell>
        <mxCell id="p2FeWByDgp1WtgRKtF5X-19" value="" style="rounded=0;whiteSpace=wrap;html=1;strokeWidth=3;fillColor=#eeeeee;strokeColor=#36393d;" vertex="1" parent="1">
          <mxGeometry x="869" y="191" width="20" height="20" as="geometry" />
        </mxCell>
        <mxCell id="p2FeWByDgp1WtgRKtF5X-20" value="" style="rounded=0;whiteSpace=wrap;html=1;strokeWidth=3;fillColor=#eeeeee;strokeColor=#36393d;" vertex="1" parent="1">
          <mxGeometry x="869" y="171" width="20" height="20" as="geometry" />
        </mxCell>
        <mxCell id="p2FeWByDgp1WtgRKtF5X-21" value="" style="rounded=0;whiteSpace=wrap;html=1;strokeWidth=3;fillColor=#eeeeee;strokeColor=#36393d;" vertex="1" parent="1">
          <mxGeometry x="869" y="151" width="20" height="20" as="geometry" />
        </mxCell>
        <mxCell id="p2FeWByDgp1WtgRKtF5X-22" value="" style="rounded=0;whiteSpace=wrap;html=1;strokeWidth=3;fillColor=#eeeeee;strokeColor=#36393d;" vertex="1" parent="1">
          <mxGeometry x="869" y="132" width="20" height="20" as="geometry" />
        </mxCell>
        <mxCell id="p2FeWByDgp1WtgRKtF5X-23" value="" style="rounded=0;whiteSpace=wrap;html=1;strokeWidth=3;fillColor=#60a917;strokeColor=#000000;fillStyle=zigzag-line;fontColor=#ffffff;" vertex="1" parent="1">
          <mxGeometry x="1070" y="191" width="20" height="20" as="geometry" />
        </mxCell>
        <mxCell id="p2FeWByDgp1WtgRKtF5X-24" value="" style="rounded=0;whiteSpace=wrap;html=1;strokeWidth=3;fillColor=#60a917;strokeColor=#000000;fillStyle=zigzag-line;fontColor=#ffffff;" vertex="1" parent="1">
          <mxGeometry x="1070" y="171" width="20" height="20" as="geometry" />
        </mxCell>
        <mxCell id="p2FeWByDgp1WtgRKtF5X-25" style="edgeStyle=orthogonalEdgeStyle;rounded=0;orthogonalLoop=1;jettySize=auto;html=1;exitX=1;exitY=1;exitDx=0;exitDy=0;strokeWidth=4;" edge="1" parent="1">
          <mxGeometry relative="1" as="geometry">
            <Array as="points">
              <mxPoint x="1089.97" y="171" />
              <mxPoint x="1089.97" y="171" />
            </Array>
            <mxPoint x="1149.97" y="171.5" as="targetPoint" />
            <mxPoint x="1091.97" y="171" as="sourcePoint" />
          </mxGeometry>
        </mxCell>
        <mxCell id="p2FeWByDgp1WtgRKtF5X-26" value="" style="rounded=0;whiteSpace=wrap;html=1;strokeWidth=3;fillColor=#60a917;strokeColor=#000000;fillStyle=zigzag-line;fontColor=#ffffff;" vertex="1" parent="1">
          <mxGeometry x="1070" y="151" width="20" height="20" as="geometry" />
        </mxCell>
        <mxCell id="p2FeWByDgp1WtgRKtF5X-27" value="" style="rounded=0;whiteSpace=wrap;html=1;strokeWidth=3;fillColor=#60a917;strokeColor=#000000;fillStyle=zigzag-line;fontColor=#ffffff;" vertex="1" parent="1">
          <mxGeometry x="1070" y="132" width="20" height="20" as="geometry" />
        </mxCell>
        <mxCell id="p2FeWByDgp1WtgRKtF5X-28" value="" style="endArrow=classic;html=1;rounded=0;exitX=1;exitY=1;exitDx=0;exitDy=0;strokeWidth=4;entryX=0.5;entryY=1;entryDx=0;entryDy=0;" edge="1" parent="1" source="p2FeWByDgp1WtgRKtF5X-21" target="p2FeWByDgp1WtgRKtF5X-2">
          <mxGeometry width="50" height="50" relative="1" as="geometry">
            <mxPoint x="1190" y="295.5" as="sourcePoint" />
            <mxPoint x="940" y="171.5" as="targetPoint" />
          </mxGeometry>
        </mxCell>
        <mxCell id="p2FeWByDgp1WtgRKtF5X-29" value="" style="rounded=0;whiteSpace=wrap;html=1;strokeWidth=3;fillColor=#FF3333;strokeColor=#36393d;" vertex="1" parent="1">
          <mxGeometry x="869" y="29" width="20" height="20" as="geometry" />
        </mxCell>
        <mxCell id="p2FeWByDgp1WtgRKtF5X-30" value="" style="rounded=0;whiteSpace=wrap;html=1;strokeWidth=3;fillColor=#FF3333;strokeColor=#36393d;" vertex="1" parent="1">
          <mxGeometry x="869" y="9" width="20" height="20" as="geometry" />
        </mxCell>
        <mxCell id="p2FeWByDgp1WtgRKtF5X-31" value="" style="rounded=0;whiteSpace=wrap;html=1;strokeWidth=3;fillColor=#FF3333;strokeColor=#36393d;" vertex="1" parent="1">
          <mxGeometry x="869" y="-11" width="20" height="20" as="geometry" />
        </mxCell>
        <mxCell id="p2FeWByDgp1WtgRKtF5X-32" style="edgeStyle=orthogonalEdgeStyle;rounded=0;orthogonalLoop=1;jettySize=auto;html=1;exitX=1;exitY=0.5;exitDx=0;exitDy=0;strokeWidth=4;" edge="1" parent="1" source="p2FeWByDgp1WtgRKtF5X-33">
          <mxGeometry relative="1" as="geometry">
            <mxPoint x="1500" y="76.44827586206907" as="targetPoint" />
          </mxGeometry>
        </mxCell>
        <mxCell id="p2FeWByDgp1WtgRKtF5X-33" value="" style="ellipse;whiteSpace=wrap;html=1;aspect=fixed;fontSize=32;strokeWidth=4;" vertex="1" parent="1">
          <mxGeometry x="1381" y="51.5" width="50" height="50" as="geometry" />
        </mxCell>
        <mxCell id="p2FeWByDgp1WtgRKtF5X-34" value="" style="rounded=0;whiteSpace=wrap;html=1;strokeWidth=3;fillColor=#FF3333;strokeColor=#36393d;" vertex="1" parent="1">
          <mxGeometry x="869" y="-30" width="20" height="20" as="geometry" />
        </mxCell>
        <mxCell id="p2FeWByDgp1WtgRKtF5X-35" value="" style="endArrow=classic;html=1;rounded=0;exitX=1;exitY=1;exitDx=0;exitDy=0;entryX=0.5;entryY=0;entryDx=0;entryDy=0;strokeWidth=4;" edge="1" parent="1" source="p2FeWByDgp1WtgRKtF5X-31" target="p2FeWByDgp1WtgRKtF5X-33">
          <mxGeometry width="50" height="50" relative="1" as="geometry">
            <mxPoint x="1090" y="150" as="sourcePoint" />
            <mxPoint x="1350" y="10" as="targetPoint" />
            <Array as="points">
              <mxPoint x="1406" y="10" />
            </Array>
          </mxGeometry>
        </mxCell>
        <mxCell id="p2FeWByDgp1WtgRKtF5X-36" value="c&lt;sup&gt;(t-1)&lt;/sup&gt;" style="text;html=1;align=center;verticalAlign=middle;whiteSpace=wrap;rounded=0;fontSize=23;strokeWidth=4;" vertex="1" parent="1">
          <mxGeometry x="860" y="50" width="60" height="30" as="geometry" />
        </mxCell>
        <mxCell id="p2FeWByDgp1WtgRKtF5X-37" value="" style="ellipse;whiteSpace=wrap;html=1;aspect=fixed;strokeWidth=2;" vertex="1" parent="1">
          <mxGeometry x="1392.5" y="63" width="27" height="27" as="geometry" />
        </mxCell>
        <mxCell id="p2FeWByDgp1WtgRKtF5X-38" value="" style="shape=waypoint;sketch=0;fillStyle=solid;size=6;pointerEvents=1;points=[];fillColor=none;resizable=0;rotatable=0;perimeter=centerPerimeter;snapToPoint=1;strokeWidth=3;" vertex="1" parent="1">
          <mxGeometry x="1396" y="66.5" width="20" height="20" as="geometry" />
        </mxCell>
        <mxCell id="p2FeWByDgp1WtgRKtF5X-39" value="" style="rounded=0;whiteSpace=wrap;html=1;strokeWidth=3;fillColor=#0050ef;strokeColor=#000000;fillStyle=zigzag-line;fontColor=#ffffff;" vertex="1" parent="1">
          <mxGeometry x="1509" y="95.5" width="20" height="20" as="geometry" />
        </mxCell>
        <mxCell id="p2FeWByDgp1WtgRKtF5X-40" value="" style="rounded=0;whiteSpace=wrap;html=1;strokeWidth=3;fillColor=#0050ef;strokeColor=#000000;fillStyle=zigzag-line;fontColor=#ffffff;" vertex="1" parent="1">
          <mxGeometry x="1509" y="75.5" width="20" height="20" as="geometry" />
        </mxCell>
        <mxCell id="p2FeWByDgp1WtgRKtF5X-41" value="" style="rounded=0;whiteSpace=wrap;html=1;strokeWidth=3;fillColor=#0050ef;strokeColor=#000000;fillStyle=zigzag-line;fontColor=#ffffff;" vertex="1" parent="1">
          <mxGeometry x="1509" y="55.5" width="20" height="20" as="geometry" />
        </mxCell>
        <mxCell id="p2FeWByDgp1WtgRKtF5X-42" value="" style="rounded=0;whiteSpace=wrap;html=1;strokeWidth=3;fillColor=#0050ef;strokeColor=#000000;fillStyle=zigzag-line;fontColor=#ffffff;" vertex="1" parent="1">
          <mxGeometry x="1509" y="36.5" width="20" height="20" as="geometry" />
        </mxCell>
        <mxCell id="p2FeWByDgp1WtgRKtF5X-43" value="" style="rounded=0;whiteSpace=wrap;html=1;strokeWidth=3;fillColor=#dae8fc;strokeColor=#6c8ebf;" vertex="1" parent="1">
          <mxGeometry x="1396" y="196" width="20" height="20" as="geometry" />
        </mxCell>
        <mxCell id="p2FeWByDgp1WtgRKtF5X-44" value="" style="rounded=0;whiteSpace=wrap;html=1;strokeWidth=3;fillColor=#dae8fc;strokeColor=#6c8ebf;" vertex="1" parent="1">
          <mxGeometry x="1396" y="176" width="20" height="20" as="geometry" />
        </mxCell>
        <mxCell id="p2FeWByDgp1WtgRKtF5X-45" value="" style="rounded=0;whiteSpace=wrap;html=1;strokeWidth=3;fillColor=#dae8fc;strokeColor=#6c8ebf;" vertex="1" parent="1">
          <mxGeometry x="1396" y="156" width="20" height="20" as="geometry" />
        </mxCell>
        <mxCell id="p2FeWByDgp1WtgRKtF5X-46" style="edgeStyle=orthogonalEdgeStyle;rounded=0;orthogonalLoop=1;jettySize=auto;html=1;entryX=0.5;entryY=1;entryDx=0;entryDy=0;strokeWidth=3;" edge="1" parent="1" source="p2FeWByDgp1WtgRKtF5X-47" target="p2FeWByDgp1WtgRKtF5X-33">
          <mxGeometry relative="1" as="geometry" />
        </mxCell>
        <mxCell id="p2FeWByDgp1WtgRKtF5X-47" value="" style="rounded=0;whiteSpace=wrap;html=1;strokeWidth=3;fillColor=#dae8fc;strokeColor=#6c8ebf;" vertex="1" parent="1">
          <mxGeometry x="1396" y="137" width="20" height="20" as="geometry" />
        </mxCell>
        <mxCell id="p2FeWByDgp1WtgRKtF5X-48" value="cf&lt;sub&gt;g&lt;/sub&gt;&lt;sup&gt;(t)&lt;/sup&gt;" style="text;html=1;align=center;verticalAlign=middle;whiteSpace=wrap;rounded=0;fontSize=23;strokeWidth=4;" vertex="1" parent="1">
          <mxGeometry x="1489" y="127" width="60" height="30" as="geometry" />
        </mxCell>
        <mxCell id="p2FeWByDgp1WtgRKtF5X-49" value="x&lt;sup&gt;(t)&lt;/sup&gt;" style="text;html=1;align=center;verticalAlign=middle;whiteSpace=wrap;rounded=0;fontSize=23;strokeWidth=4;" vertex="1" parent="1">
          <mxGeometry x="1057" y="406.5" width="60" height="30" as="geometry" />
        </mxCell>
        <mxCell id="p2FeWByDgp1WtgRKtF5X-50" value="U&lt;sub&gt;g&lt;/sub&gt;" style="text;html=1;align=center;verticalAlign=middle;whiteSpace=wrap;rounded=0;fontSize=28;fontStyle=2" vertex="1" parent="1">
          <mxGeometry x="1045" y="324.5" width="60" height="30" as="geometry" />
        </mxCell>
        <mxCell id="p2FeWByDgp1WtgRKtF5X-51" value="" style="rounded=0;whiteSpace=wrap;html=1;strokeWidth=3;fillColor=#fff2cc;strokeColor=#d6b656;" vertex="1" parent="1">
          <mxGeometry x="1127" y="411.5" width="20" height="20" as="geometry" />
        </mxCell>
        <mxCell id="p2FeWByDgp1WtgRKtF5X-52" value="" style="rounded=0;whiteSpace=wrap;html=1;strokeWidth=3;fillColor=#fff2cc;strokeColor=#d6b656;" vertex="1" parent="1">
          <mxGeometry x="1147" y="411.5" width="20" height="20" as="geometry" />
        </mxCell>
        <mxCell id="p2FeWByDgp1WtgRKtF5X-53" style="edgeStyle=orthogonalEdgeStyle;rounded=0;orthogonalLoop=1;jettySize=auto;html=1;exitX=0.5;exitY=0;exitDx=0;exitDy=0;entryX=0.5;entryY=1;entryDx=0;entryDy=0;strokeWidth=3;" edge="1" parent="1" source="p2FeWByDgp1WtgRKtF5X-54" target="p2FeWByDgp1WtgRKtF5X-57">
          <mxGeometry relative="1" as="geometry" />
        </mxCell>
        <mxCell id="p2FeWByDgp1WtgRKtF5X-54" value="" style="rounded=0;whiteSpace=wrap;html=1;strokeWidth=3;fillColor=#fff2cc;strokeColor=#d6b656;" vertex="1" parent="1">
          <mxGeometry x="1167" y="411.5" width="20" height="20" as="geometry" />
        </mxCell>
        <mxCell id="p2FeWByDgp1WtgRKtF5X-55" value="" style="rounded=0;whiteSpace=wrap;html=1;strokeWidth=3;fillColor=#fff2cc;strokeColor=#d6b656;" vertex="1" parent="1">
          <mxGeometry x="1187" y="411.5" width="20" height="20" as="geometry" />
        </mxCell>
        <mxCell id="p2FeWByDgp1WtgRKtF5X-56" style="edgeStyle=orthogonalEdgeStyle;rounded=0;orthogonalLoop=1;jettySize=auto;html=1;exitX=0.5;exitY=0;exitDx=0;exitDy=0;entryX=1;entryY=1;entryDx=0;entryDy=0;strokeWidth=3;" edge="1" parent="1" source="p2FeWByDgp1WtgRKtF5X-57" target="p2FeWByDgp1WtgRKtF5X-8">
          <mxGeometry relative="1" as="geometry">
            <mxPoint x="1177" y="225" as="targetPoint" />
          </mxGeometry>
        </mxCell>
        <mxCell id="p2FeWByDgp1WtgRKtF5X-57" value="" style="rounded=1;whiteSpace=wrap;html=1;fontSize=12;glass=0;strokeWidth=3;shadow=0;fillColor=#e1d5e7;strokeColor=#000000;" vertex="1" parent="1">
          <mxGeometry x="1112" y="320" width="130" height="40" as="geometry" />
        </mxCell>
        <mxCell id="p2FeWByDgp1WtgRKtF5X-58" value="" style="ellipse;whiteSpace=wrap;html=1;aspect=fixed;strokeWidth=2;fillColor=#F19C99;strokeColor=#000000;" vertex="1" parent="1">
          <mxGeometry x="1122" y="330" width="20" height="20" as="geometry" />
        </mxCell>
        <mxCell id="p2FeWByDgp1WtgRKtF5X-59" value="" style="ellipse;whiteSpace=wrap;html=1;aspect=fixed;strokeWidth=2;fillColor=#F19C99;strokeColor=#000000;" vertex="1" parent="1">
          <mxGeometry x="1152" y="330" width="20" height="20" as="geometry" />
        </mxCell>
        <mxCell id="p2FeWByDgp1WtgRKtF5X-60" value="" style="ellipse;whiteSpace=wrap;html=1;aspect=fixed;strokeWidth=2;fillColor=#F19C99;strokeColor=#000000;" vertex="1" parent="1">
          <mxGeometry x="1182" y="330" width="20" height="20" as="geometry" />
        </mxCell>
        <mxCell id="p2FeWByDgp1WtgRKtF5X-61" value="" style="ellipse;whiteSpace=wrap;html=1;aspect=fixed;strokeWidth=2;fillColor=#F19C99;strokeColor=#000000;" vertex="1" parent="1">
          <mxGeometry x="1212" y="330" width="20" height="20" as="geometry" />
        </mxCell>
        <mxCell id="p2FeWByDgp1WtgRKtF5X-62" value="" style="rounded=0;whiteSpace=wrap;html=1;strokeWidth=3;fillColor=#fff2cc;strokeColor=#d6b656;" vertex="1" parent="1">
          <mxGeometry x="1207" y="411.5" width="20" height="20" as="geometry" />
        </mxCell>
      </root>
    </mxGraphModel>
  </diagram>
</mxfile>
